<?xml version="1.0" encoding="UTF-8"?>
<svg width="133px" height="48px" viewBox="0 0 133 48" version="1.1" xmlns="http://www.w3.org/2000/svg" xmlns:xlink="http://www.w3.org/1999/xlink">
    <!-- Generator: Sketch 59.1 (86144) - https://sketch.com -->
    <title>lens-logo-1-updated</title>
    <desc>Created with Sketch.</desc>
    <g id="lens-logo-1-updated" stroke="none" stroke-width="1" fill="none" fill-rule="evenodd">
        <g id="Google-Lens" transform="translate(12.000000, 13.000000)" fill="#FFFFFF">
            <path d="M58.7328,16.3072 C57.2991928,16.3072 56.1024048,15.8208049 55.1424,14.848 C54.1823952,13.8751951 53.7024,12.6720072 53.7024,11.2384 C53.7024,9.79199277 54.1567955,8.58240486 55.0656,7.6096 C55.9872046,6.6495952 57.1263932,6.1696 58.4832,6.1696 C58.9824025,6.1696 59.4559978,6.24639923 59.904,6.4 C60.3520022,6.55360077 60.7615981,6.77439856 61.1328,7.0624 C61.5040019,7.35040144 61.8335986,7.69279802 62.1216,8.0896 C62.4096014,8.48640198 62.6431991,8.92159763 62.8224,9.3952 L63.0528,9.9712 L56.2752,12.7744 C56.8000026,13.7984051 57.6191944,14.3104 58.7328,14.3104 C59.7696052,14.3104 60.6015969,13.8432047 61.2288,12.9088 L62.9568,14.0608 C61.9327949,15.5584075 60.524809,16.3072 58.7328,16.3072 Z M58.56,8.128 C57.8687965,8.128 57.2416028,8.40959718 56.6784,8.9728 C56.1407973,9.52320275 55.8847999,10.2271957 55.9104,11.0848 L60.4416,9.2032 C60.3135994,8.8831984 60.0768017,8.62400099 59.7312,8.4256 C59.3855983,8.22719901 58.9952022,8.128 58.56,8.128 Z M50.4,1.1008 L52.6272,1.1008 L52.6272,16 L50.4,16 L50.4,1.1008 Z M44.0448,20.8576 C43.5327974,20.8576 43.0464023,20.7840007 42.5856,20.6368 C42.1247977,20.4895993 41.699202,20.2848013 41.3088,20.0224 C40.918398,19.7599987 40.5760015,19.4464018 40.2816,19.0816 C39.9871985,18.7167982 39.744001,18.3104022 39.552,17.8624 L41.4912,17.056 C41.7216012,17.5936027 42.0607978,18.0287983 42.5088,18.3616 C42.9568022,18.6944017 43.4687971,18.8608 44.0448,18.8608 C45.849609,18.8608 46.752,17.7984106 46.752,15.6736 L46.752,15.1552 L46.6752,15.1552 C46.0351968,15.9232038 45.1456057,16.3072 44.0064,16.3072 C42.7135935,16.3072 41.5744049,15.8144049 40.5888,14.8288 C39.6287952,13.830395 39.1488,12.6400069 39.1488,11.2576 C39.1488,9.86239302 39.6287952,8.66560499 40.5888,7.6672 C41.5616049,6.66879501 42.7007935,6.1696 44.0064,6.1696 C45.1456057,6.1696 46.0351968,6.54719622 46.6752,7.3024 L46.752,7.3024 L46.752,6.4768 L48.864,6.4768 L48.864,15.5776 C48.864,17.2672084 48.4384043,18.5695954 47.5872,19.4848 C46.7359957,20.4000046 45.5552076,20.8576 44.0448,20.8576 Z M41.376,11.2576 C41.376,12.1152043 41.6447973,12.8383971 42.1824,13.4272 C42.7328028,14.0160029 43.404796,14.3104 44.1984,14.3104 C44.9536038,14.3104 45.5935974,14.0224029 46.1184,13.4464 C46.6432026,12.844797 46.9056,12.1152043 46.9056,11.2576 C46.9056,10.3871956 46.6432026,9.65120301 46.1184,9.0496 C45.6063974,8.46079706 44.9664038,8.1664 44.1984,8.1664 C43.4303962,8.1664 42.7648028,8.46719699 42.2016,9.0688 C41.6511972,9.65760294 41.376,10.3871956 41.376,11.2576 Z M38.2272,11.2384 C38.2272,12.6592071 37.7344049,13.8623951 36.7488,14.848 C35.7759951,15.8208049 34.5728072,16.3072 33.1392,16.3072 C31.7055928,16.3072 30.5024049,15.8208049 29.5296,14.848 C28.5439951,13.8623951 28.0512,12.6592071 28.0512,11.2384 C28.0512,9.79199277 28.5375951,8.5888048 29.5104,7.6288 C30.4832049,6.65599514 31.6927928,6.1696 33.1392,6.1696 C34.5728072,6.1696 35.7759951,6.65599514 36.7488,7.6288 C37.7344049,8.5888048 38.2272,9.79199277 38.2272,11.2384 Z M30.2784,11.2384 C30.2784,12.1088044 30.5535972,12.8383971 31.104,13.4272 C31.6544028,14.0160029 32.332796,14.3104 33.1392,14.3104 C33.932804,14.3104 34.6047972,14.0160029 35.1552,13.4272 C35.7184028,12.825597 36,12.0960043 36,11.2384 C36,10.3423955 35.7248028,9.61280282 35.1744,9.0496 C34.6239972,8.46079706 33.945604,8.1664 33.1392,8.1664 C32.332796,8.1664 31.6544028,8.46079706 31.104,9.0496 C30.5535972,9.61280282 30.2784,10.3423955 30.2784,11.2384 Z M27.1296,11.2384 C27.1296,12.6592071 26.6368049,13.8623951 25.6512,14.848 C24.6783951,15.8208049 23.4752072,16.3072 22.0416,16.3072 C20.6079928,16.3072 19.4048049,15.8208049 18.432,14.848 C17.4463951,13.8623951 16.9536,12.6592071 16.9536,11.2384 C16.9536,9.79199277 17.4399951,8.5888048 18.4128,7.6288 C19.3856049,6.65599514 20.5951928,6.1696 22.0416,6.1696 C23.4752072,6.1696 24.6783951,6.65599514 25.6512,7.6288 C26.6368049,8.5888048 27.1296,9.79199277 27.1296,11.2384 Z M19.1808,11.2384 C19.1808,12.1088044 19.4559972,12.8383971 20.0064,13.4272 C20.5568028,14.0160029 21.235196,14.3104 22.0416,14.3104 C22.835204,14.3104 23.5071972,14.0160029 24.0576,13.4272 C24.6208028,12.825597 24.9024,12.0960043 24.9024,11.2384 C24.9024,10.3423955 24.6272028,9.61280282 24.0768,9.0496 C23.5263972,8.46079706 22.848004,8.1664 22.0416,8.1664 C21.235196,8.1664 20.5568028,8.46079706 20.0064,9.0496 C19.4559972,9.61280282 19.1808,10.3423955 19.1808,11.2384 Z M8.832,16.3072 C7.42399296,16.3072 6.09280627,15.9488036 4.8384,15.232 C3.58399373,14.5279965 2.60480352,13.5680061 1.9008,12.352 C1.19679648,11.148794 0.8448,9.84320704 0.8448,8.4352 C0.8448,7.03999302 1.19679648,5.74080602 1.9008,4.5376 C2.61760358,3.30879386 3.59679379,2.34240352 4.8384,1.6384 C6.09280627,0.921596416 7.42399296,0.5632 8.832,0.5632 C10.9056104,0.5632 12.7039924,1.28639277 14.2272,2.7328 L12.7104,4.2496 C11.6095945,3.22559488 10.3168074,2.7136 8.832,2.7136 C7.24479206,2.7136 5.90720544,3.27039443 4.8192,4.384 C3.73119456,5.4848055 3.1872,6.835192 3.1872,8.4352 C3.1872,10.035208 3.73119456,11.3855945 4.8192,12.4864 C5.90720544,13.6000056 7.24479206,14.1568 8.832,14.1568 C10.2016068,14.1568 11.3535953,13.7856037 12.288,13.0432 C13.2480048,12.2879962 13.8111992,11.2320068 13.9776,9.8752 L8.832,9.8752 L8.832,7.7248 L16.0704,7.7248 C16.1472004,8.10880192 16.1856,8.55679744 16.1856,9.0688 C16.1856,11.2448109 15.4944069,12.9919934 14.112,14.3104 C12.716793,15.6416067 10.9568106,16.3072 8.832,16.3072 Z" id="Shape"></path>
            <path d="M68.736,2.2528 L70.368,2.2528 L70.368,14.4448 L76.3776,14.4448 L76.3776,16 L68.736,16 L68.736,2.2528 Z M82.5408,16.3072 C81.6063953,16.3072 80.7680037,16.0832022 80.0256,15.6352 C79.2831963,15.1871978 78.7040021,14.5696039 78.288,13.7824 C77.8719979,12.9951961 77.664,12.1088049 77.664,11.1232 C77.664,10.1887953 77.859198,9.321604 78.2496,8.5216 C78.640002,7.721596 79.1967964,7.08480237 79.92,6.6112 C80.6432036,6.13759763 81.4719953,5.9008 82.4064,5.9008 C83.3664048,5.9008 84.1983965,6.11519786 84.9024,6.544 C85.6064035,6.97280214 86.1471981,7.56479622 86.5248,8.32 C86.9024019,9.07520378 87.0912,9.93919514 87.0912,10.912 C87.0912,11.0656008 87.0784001,11.2319991 87.0528,11.4112 L79.296,11.4112 C79.3344002,12.1536037 79.5135984,12.7807974 79.8336,13.2928 C80.1536016,13.8048026 80.5599975,14.1887987 81.0528,14.4448 C81.5456025,14.7008013 82.0607973,14.8288 82.5984,14.8288 C83.8784064,14.8288 84.8447967,14.2400059 85.4976,13.0624 L86.88,13.7344 C86.470398,14.5152039 85.9008036,15.1391977 85.1712,15.6064 C84.4415964,16.0736023 83.5648051,16.3072 82.5408,16.3072 Z M85.3632,10.0672 C85.3375999,9.65759795 85.222401,9.24800205 85.0176,8.8384 C84.812799,8.42879795 84.4928022,8.08320141 84.0576,7.8016 C83.6223978,7.51999859 83.0720033,7.3792 82.4064,7.3792 C81.6383962,7.3792 80.9856027,7.62559754 80.448,8.1184 C79.9103973,8.61120246 79.5584008,9.26079597 79.392,10.0672 L85.3632,10.0672 Z M88.992,6.208 L90.5472,6.208 L90.5472,7.648 L90.624,7.648 C90.8928013,7.16159757 91.3215971,6.7488017 91.9104,6.4096 C92.4992029,6.0703983 93.1263967,5.9008 93.792,5.9008 C94.9696059,5.9008 95.8687969,6.24319658 96.4896,6.928 C97.1104031,7.61280342 97.4208,8.54399411 97.4208,9.7216 L97.4208,16 L95.7888,16 L95.7888,9.9712 C95.7888,9.06239546 95.5712022,8.40320205 95.136,7.9936 C94.7007978,7.58399795 94.1056038,7.3792 93.3504,7.3792 C92.8255974,7.3792 92.3552021,7.52639853 91.9392,7.8208 C91.5231979,8.11520147 91.2000012,8.5023976 90.9696,8.9824 C90.7391988,9.4624024 90.624,9.96479738 90.624,10.4896 L90.624,16 L88.992,16 L88.992,6.208 Z M103.1808,16.3072 C102.131195,16.3072 101.254404,16.0608025 100.5504,15.568 C99.8463965,15.0751975 99.3472015,14.4448038 99.0528,13.6768 L100.512,13.024 C100.755201,13.6128029 101.116798,14.0671984 101.5968,14.3872 C102.076802,14.7072016 102.604797,14.8672 103.1808,14.8672 C103.795203,14.8672 104.319998,14.7424012 104.7552,14.4928 C105.190402,14.2431988 105.408,13.8880023 105.408,13.4272 C105.408,13.017598 105.235202,12.6880012 104.8896,12.4384 C104.582398,12.2165322 104.118442,12.0224795 103.497719,11.8562372 L102.0672,11.488 C101.286396,11.295999 100.646402,10.9696023 100.1472,10.5088 C99.6479975,10.0479977 99.3984,9.45280365 99.3984,8.7232 C99.3984,8.15999718 99.5679983,7.66400214 99.9072,7.2352 C100.246402,6.80639786 100.697597,6.47680115 101.2608,6.2464 C101.824003,6.01599885 102.431997,5.9008 103.0848,5.9008 C103.942404,5.9008 104.707197,6.08639814 105.3792,6.4576 C106.051203,6.82880186 106.527999,7.34719667 106.8096,8.0128 L105.3888,8.6656 C104.953598,7.79519565 104.179206,7.36 103.0656,7.36 C102.527997,7.36 102.057602,7.48479875 101.6544,7.7344 C101.251198,7.98400125 101.0496,8.30079808 101.0496,8.6848 C101.0496,9.04320179 101.190399,9.33439888 101.472,9.5584 C101.753601,9.78240112 102.175997,9.9647993 102.7392,10.1056 L104.16,10.4704 C105.120005,10.7136012 105.843198,11.0751976 106.3296,11.5552 C106.816002,12.0352024 107.0592,12.6207965 107.0592,13.312 C107.0592,13.913603 106.886402,14.4415977 106.5408,14.896 C106.195198,15.3504023 105.728003,15.6991988 105.1392,15.9424 C104.550397,16.1856012 103.897604,16.3072 103.1808,16.3072 Z" id="Lens" fill-rule="nonzero"></path>
        </g>
    </g>
</svg>
